<svg xmlns="http://www.w3.org/2000/svg" viewBox="-5894.5 1399.089 914.563 650.246"><defs><style>.a{opacity:0.566;}.b{fill:#f1f2f2;}.c,.j,.n{fill:#14a774;}.c,.d,.k,.l,.m{stroke:#000;stroke-width:1.5px;}.c,.d,.k,.l,.m,.n,.o{stroke-miterlimit:10;}.d{fill:#bcbec0;}.e{fill:#939598;}.f{fill:#1a1a1a;}.g,.m{fill:#20ab7b;}.h,.o{fill:#f2f2f2;}.i{fill:gray;}.k{fill:#a7a9ac;}.l{fill:#fff;}.n,.o{stroke:#1a1a1a;stroke-width:2px;}</style></defs><g class="a" transform="translate(-5894.5 1399.089)"><rect class="b" width="487.161" height="375.606" transform="translate(0 274.64)"/><g transform="translate(243.815 449.425)"><g transform="translate(17.337)"><g transform="translate(67.631 93.981)"><path class="c" d="M217,378.019h26.709a4.975,4.975,0,0,0,5-5.08V347.38a4.975,4.975,0,0,0-5-5.08H217a4.975,4.975,0,0,0-5,5.08v25.559A5.075,5.075,0,0,0,217,378.019Z" transform="translate(-209.657 -342.3)"/><path class="c" d="M247.83,362.3a4.066,4.066,0,0,1,4.061,4.128,3.972,3.972,0,0,1-4.061,4.128H214.561a4.066,4.066,0,0,1-4.061-4.128,3.972,3.972,0,0,1,4.061-4.128Z" transform="translate(-210.5 -330.55)"/></g><g transform="translate(67.631)"><path class="c" d="M243.707,285.9H217a4.975,4.975,0,0,0-5,5.08v25.559a4.975,4.975,0,0,0,5,5.08h26.709a4.975,4.975,0,0,0,5-5.08V290.821A5.15,5.15,0,0,0,243.707,285.9Z" transform="translate(-209.657 -281.455)"/><path class="c" d="M214.561,291.355a4.128,4.128,0,0,1,0-8.255H247.83a4.128,4.128,0,0,1,0,8.255Z" transform="translate(-210.5 -283.1)"/></g><g transform="translate(0.156 93.981)"><path class="c" d="M173.8,378.019h26.709a4.975,4.975,0,0,0,5-5.08V347.38a4.975,4.975,0,0,0-5-5.08H173.8a4.975,4.975,0,0,0-5,5.08v25.559A5.075,5.075,0,0,0,173.8,378.019Z" transform="translate(-166.457 -342.3)"/><path class="c" d="M204.63,362.3a4.066,4.066,0,0,1,4.061,4.128,3.972,3.972,0,0,1-4.061,4.128H171.361a4.066,4.066,0,0,1-4.061-4.128,3.972,3.972,0,0,1,4.061-4.128Z" transform="translate(-167.3 -330.55)"/></g><path class="c" d="M200.507,285.9H173.8a4.975,4.975,0,0,0-5,5.08v25.559a4.975,4.975,0,0,0,5,5.08h26.709a4.975,4.975,0,0,0,5-5.08V290.821A5.15,5.15,0,0,0,200.507,285.9Z" transform="translate(-166.301 -281.455)"/><path class="c" d="M171.261,291.355a4.128,4.128,0,0,1,0-8.255H204.53a4.128,4.128,0,0,1,0,8.255Z" transform="translate(-167.2 -283.1)"/></g><path class="d" d="M156.1,309.657V369.03a8.4,8.4,0,0,0,8.278,8.414h127.14a8.4,8.4,0,0,0,8.278-8.414V309.816a8.4,8.4,0,0,0-8.278-8.414H164.378A8.165,8.165,0,0,0,156.1,309.657Z" transform="translate(-156.1 -272.35)"/></g><rect class="b" width="270.055" height="274.481"/><rect class="e" width="217.262" height="274.481" transform="translate(270.055)"/><rect class="e" width="269.898" height="411.96"/><rect class="b" width="217.262" height="274.481" transform="translate(485.911)"/><rect class="e" width="217.262" height="375.606" transform="translate(485.911 274.64)"/><rect class="b" width="217.262" height="374.336" transform="translate(696.769)"/><rect class="e" width="216.95" height="276.863" transform="translate(696.925 373.383)"/><g transform="translate(23.585 8.255)"><path class="f" d="M222.053,10.6a5.31,5.31,0,0,0-5.311-5.4H20.41a5.31,5.31,0,0,0-5.31,5.4v5.08a5.59,5.59,0,0,0,1.562,3.81,5.172,5.172,0,0,0-1.25,3.334V57.27a4.907,4.907,0,0,0,4.842,4.921H54.148a4.267,4.267,0,0,0,2.03-.476V77.591a5.37,5.37,0,0,0-2.811,4.763v33.338a5.083,5.083,0,0,0,2.5,4.445V195.7a5.31,5.31,0,0,0,5.311,5.4H175.821a5.31,5.31,0,0,0,5.311-5.4V120.295a5.438,5.438,0,0,0,2.5-4.445V82.512a5.37,5.37,0,0,0-2.811-4.763V61.874a4.746,4.746,0,0,0,2.031.476h33.894a4.907,4.907,0,0,0,4.842-4.921V22.821a5.172,5.172,0,0,0-1.25-3.334,5.59,5.59,0,0,0,1.562-3.81V10.6Z" transform="translate(-15.1 -5.2)"/><path class="g" d="M175.89,15.376a2.86,2.86,0,0,0-1.093-.318H60.153a2.231,2.231,0,0,0-1.093.318,2,2,0,0,0-.937,1.746V71.257H176.984V17.123A2.607,2.607,0,0,0,175.89,15.376ZM114.976,46.65a10.216,10.216,0,0,1-10.152,10.319H72.8A10.216,10.216,0,0,1,62.652,46.65V34.109A10.216,10.216,0,0,1,72.8,23.79h32.019a10.216,10.216,0,0,1,10.152,10.319Zm57.322,0a10.216,10.216,0,0,1-10.152,10.319H130.126A10.216,10.216,0,0,1,119.974,46.65V34.109A10.216,10.216,0,0,1,130.126,23.79h32.019A10.216,10.216,0,0,1,172.3,34.109ZM54.217,15.376a2.86,2.86,0,0,0-1.093-.318H19.23a2.275,2.275,0,0,0-2.03,2.223v34.29a2.085,2.085,0,0,0,2.03,2.064H53.124a2.085,2.085,0,0,0,2.03-2.064V17.123A2,2,0,0,0,54.217,15.376Zm162.439-.159a2.2,2.2,0,0,0-.937-.318H181.826a2.231,2.231,0,0,0-1.093.318,2,2,0,0,0-.937,1.746V51.572a2.085,2.085,0,0,0,2.031,2.064h33.893a2.085,2.085,0,0,0,2.03-2.064V17.123A2.429,2.429,0,0,0,216.656,15.218Z" transform="translate(-13.92 0.499)"/><path class="h" d="M58.166,194.509a1.748,1.748,0,0,0,1.718,1.746H174.528a1.748,1.748,0,0,0,1.718-1.746V119.9H58.166ZM104.711,57.665a6.822,6.822,0,0,0,6.716-6.826V38.3a6.823,6.823,0,0,0-6.716-6.826H72.692A6.822,6.822,0,0,0,65.975,38.3V50.839a6.823,6.823,0,0,0,6.716,6.826ZM215.451,7.5H19.118A1.748,1.748,0,0,0,17.4,9.246v5.08a1.748,1.748,0,0,0,1.718,1.746H215.451a1.748,1.748,0,0,0,1.718-1.746V9.246A1.748,1.748,0,0,0,215.451,7.5ZM162.033,57.665a6.822,6.822,0,0,0,6.716-6.826V38.3a6.823,6.823,0,0,0-6.716-6.826H130.014A6.822,6.822,0,0,0,123.3,38.3V50.839a6.823,6.823,0,0,0,6.716,6.826Z" transform="translate(-13.808 -3.849)"/><path class="i" d="M164.3,53.176c-.156-.159-.312-.159-.469-.317a.927.927,0,0,0-.625-.159H43.718c-.312,0-.469,0-.625.159-.156,0-.312.159-.469.317A1.558,1.558,0,0,0,42,54.605V87.943a2.027,2.027,0,0,0,.625,1.429,2.231,2.231,0,0,0,1.093.318H163.2a2.231,2.231,0,0,0,1.093-.318,1.558,1.558,0,0,0,.625-1.429V54.605A1.558,1.558,0,0,0,164.3,53.176Z" transform="translate(0.015 22.707)"/><path class="f" d="M222.053,10.6a5.31,5.31,0,0,0-5.311-5.4H20.41a5.31,5.31,0,0,0-5.31,5.4v5.08a5.59,5.59,0,0,0,1.562,3.81,5.172,5.172,0,0,0-1.25,3.334V57.27a4.907,4.907,0,0,0,4.842,4.921H54.148a4.267,4.267,0,0,0,2.03-.476V77.591a5.37,5.37,0,0,0-2.811,4.763v33.338a5.083,5.083,0,0,0,2.5,4.445V195.7a5.31,5.31,0,0,0,5.311,5.4H175.821a5.31,5.31,0,0,0,5.311-5.4V120.295a5.438,5.438,0,0,0,2.5-4.445V82.512a5.37,5.37,0,0,0-2.811-4.763V61.874a4.746,4.746,0,0,0,2.031.476h33.894a4.907,4.907,0,0,0,4.842-4.921V22.821a5.172,5.172,0,0,0-1.25-3.334,5.59,5.59,0,0,0,1.562-3.81V10.6ZM56.334,57.27a2.085,2.085,0,0,1-2.03,2.064H20.41a2.085,2.085,0,0,1-2.03-2.064V22.821a2.208,2.208,0,0,1,1.093-1.905c.156-.159.625-.159.937-.159H54.3a2.231,2.231,0,0,1,1.093.318,2,2,0,0,1,.937,1.746ZM177.7,195.861a1.748,1.748,0,0,1-1.718,1.746H61.333a1.748,1.748,0,0,1-1.718-1.746V121.247H177.851v74.613Zm2.343-80.011a2.027,2.027,0,0,1-.625,1.429,2.231,2.231,0,0,1-1.093.318H58.834a2.231,2.231,0,0,1-1.093-.318,1.558,1.558,0,0,1-.625-1.429V82.512a2.027,2.027,0,0,1,.625-1.429c.156-.159.312-.159.469-.317a.927.927,0,0,1,.625-.159H178.32c.312,0,.469,0,.625.159.156,0,.312.159.469.317a1.558,1.558,0,0,1,.625,1.429V115.85ZM59.146,77.114V22.821a1.83,1.83,0,0,1,.937-1.746,2.86,2.86,0,0,1,1.093-.318H175.821a2.231,2.231,0,0,1,1.093.318,2,2,0,0,1,.937,1.746V76.956H59.146ZM20.41,17.583a1.748,1.748,0,0,1-1.718-1.746V10.6A1.748,1.748,0,0,1,20.41,8.851H216.743a1.748,1.748,0,0,1,1.718,1.746v5.08a1.748,1.748,0,0,1-1.718,1.746H20.41ZM218.93,57.27a2.085,2.085,0,0,1-2.031,2.064H183.006a2.085,2.085,0,0,1-2.03-2.064V22.821a1.83,1.83,0,0,1,.937-1.746,2.86,2.86,0,0,1,1.093-.318H216.9a2.275,2.275,0,0,1,2.031,2.223Zm-55.6-27.94H131.306a10.216,10.216,0,0,0-10.152,10.319V52.19a10.216,10.216,0,0,0,10.152,10.319h32.019A10.216,10.216,0,0,0,173.478,52.19V39.649A10.317,10.317,0,0,0,163.326,29.33Zm6.56,23.019a6.823,6.823,0,0,1-6.716,6.826H131.306a6.822,6.822,0,0,1-6.716-6.826V39.808a6.823,6.823,0,0,1,6.716-6.826h32.019a6.822,6.822,0,0,1,6.716,6.826V52.349ZM106,29.33H73.984A10.216,10.216,0,0,0,63.832,39.649V52.19A10.216,10.216,0,0,0,73.984,62.509H106A10.216,10.216,0,0,0,116.156,52.19V39.649A10.216,10.216,0,0,0,106,29.33Zm6.56,23.019a6.823,6.823,0,0,1-6.716,6.826H73.984a6.822,6.822,0,0,1-6.716-6.826V39.808a6.823,6.823,0,0,1,6.716-6.826H106a6.822,6.822,0,0,1,6.716,6.826V52.349Z" transform="translate(-15.1 -5.2)"/></g><g transform="translate(653.348 96.362)"><path class="f" d="M550.906,142.933V115.311a3.316,3.316,0,0,0,2.03-3.175,3.437,3.437,0,1,0-6.872,0v.318l-2.811,1.588a.154.154,0,0,0-.156.159h-13.12A47.53,47.53,0,0,0,500.3,84.036V70.7a.155.155,0,0,1,.156-.159l1.562-2.858h.312a3.493,3.493,0,1,0-3.124-4.921H472.03a3.259,3.259,0,0,0-3.124-2.064,3.493,3.493,0,0,0,0,6.985h.312l1.562,2.858a.155.155,0,0,0,.156.159V84.036A47.529,47.529,0,0,0,441.26,114.2H428.14a.154.154,0,0,1-.156-.159l-2.811-1.588v-.318a3.437,3.437,0,1,0-6.872,0,3.565,3.565,0,0,0,2.03,3.175v27.623a3.316,3.316,0,0,0-2.03,3.175,3.437,3.437,0,1,0,6.872,0v-.318l2.811-1.588a.154.154,0,0,0,.156-.159h13.12a47.53,47.53,0,0,0,29.676,30.163v13.335a.155.155,0,0,1-.156.159l-1.562,2.858h-.312a3.493,3.493,0,1,0,3.124,4.921h27.177a3.259,3.259,0,0,0,3.124,2.064,3.493,3.493,0,0,0,0-6.985h-.312l-1.562-2.858a.155.155,0,0,0-.156-.159V174.207a47.529,47.529,0,0,0,29.676-30.163H543.1a.154.154,0,0,1,.156.159l2.811,1.588v.318a3.437,3.437,0,1,0,6.872,0A3.107,3.107,0,0,0,550.906,142.933Z" transform="translate(-418.3 -60.7)"/><path class="j" d="M469.471,171.023v12.383h24.991V171.023a45.731,45.731,0,0,1-12.5,1.746A46.6,46.6,0,0,1,469.471,171.023ZM424.8,112.6V138h12.183a47.8,47.8,0,0,1,0-25.4Zm44.671-33.02a45.578,45.578,0,0,1,24.991,0V67.2H469.471Zm57.635,33.02a47.8,47.8,0,0,1,0,25.4h12.183V112.6Z" transform="translate(-414.648 -56.881)"/><path class="h" d="M467.895,63.829c.156,0,.312,0,.312-.159a.829.829,0,0,0,.312-.635.625.625,0,1,0-1.249,0A.723.723,0,0,0,467.895,63.829Zm-47.17,46.514a.635.635,0,0,0,0,1.27h0a.807.807,0,0,0,.625-.317c0-.159.156-.159.156-.318A.718.718,0,0,0,420.725,110.343Zm0,34.132h0a.635.635,0,1,0,.625.635c0-.159,0-.318-.156-.318C421.35,144.633,421.037,144.475,420.725,144.475Zm127.764-32.7h0a.635.635,0,1,0-.625-.635c0,.159,0,.317.156.317C548.021,111.613,548.333,111.772,548.489,111.772ZM501.163,63.829c.156,0,.156.159.312.159a.635.635,0,1,0-.625-.635C500.695,63.511,500.851,63.67,501.163,63.829Zm-3.749,3.493,1.093-2.064c-.156-.159-.312-.476-.469-.635H470.862a2.189,2.189,0,0,1-.469.635l1.093,2.064Zm4.061,125.1c-.156,0-.312,0-.312.159a.829.829,0,0,0-.312.635.625.625,0,1,0,1.25,0C502.1,192.894,501.788,192.417,501.476,192.417Zm42.952-77.312v26.035l2.031,1.111c.156-.159.469-.318.625-.476V114.312a2.158,2.158,0,0,1-.625-.476Zm4.061,29.369h0a.808.808,0,0,0-.625.317c0,.159-.156.159-.156.318a.625.625,0,1,0,1.249,0C549.27,144.792,548.958,144.475,548.489,144.475Zm-22.023-30.163a2.979,2.979,0,0,1-.312-1.111,44.7,44.7,0,0,0-26.709-27.147,211005.177,211005.177,0,0,1-2.187-.635,41.932,41.932,0,0,0-24.991,0c-.312.159-.781.159-1.093.318a2.861,2.861,0,0,1-1.093.317A44.7,44.7,0,0,0,443.372,113.2a24391.723,24391.723,0,0,0-.625,2.222,43.964,43.964,0,0,0,0,25.4c.156.318.156.794.312,1.111a2.98,2.98,0,0,1,.312,1.111,44.7,44.7,0,0,0,26.709,27.146,16098777189756.2,16098777189756.2,0,0,1,2.187.635,41.932,41.932,0,0,0,24.991,0c.312-.159.781-.159,1.093-.317a2.86,2.86,0,0,1,1.093-.317,44.7,44.7,0,0,0,26.709-27.146,21188.744,21188.744,0,0,1,.625-2.223,43.965,43.965,0,0,0,0-25.4A2.982,2.982,0,0,0,526.466,114.312ZM471.8,188.925l-1.093,2.064c.156.159.312.476.469.635h27.177a2.188,2.188,0,0,1,.469-.635l-1.093-2.064Zm-3.592,3.493c-.156,0-.156-.159-.312-.159a.635.635,0,1,0,.625.635C468.676,192.735,468.519,192.576,468.207,192.417ZM422.13,114.312v27.623a2.161,2.161,0,0,1,.625.476l2.03-1.111V115.106l-2.03-1.111C422.6,114.153,422.443,114.153,422.13,114.312Z" transform="translate(-417.289 -59.701)"/><path class="f" d="M550.906,142.933V115.311a3.316,3.316,0,0,0,2.03-3.175,3.437,3.437,0,1,0-6.872,0v.318l-2.811,1.588a.154.154,0,0,0-.156.159h-13.12A47.53,47.53,0,0,0,500.3,84.036V70.7a.155.155,0,0,1,.156-.159l1.562-2.858h.312a3.493,3.493,0,1,0-3.124-4.921H472.03a3.259,3.259,0,0,0-3.124-2.064,3.493,3.493,0,0,0,0,6.985h.312l1.562,2.858a.155.155,0,0,0,.156.159V84.036A47.529,47.529,0,0,0,441.26,114.2H428.14a.154.154,0,0,1-.156-.159l-2.811-1.588v-.318a3.437,3.437,0,1,0-6.872,0,3.565,3.565,0,0,0,2.03,3.175v27.623a3.316,3.316,0,0,0-2.03,3.175,3.437,3.437,0,1,0,6.872,0v-.318l2.811-1.588a.154.154,0,0,0,.156-.159h13.12a47.53,47.53,0,0,0,29.676,30.163v13.335a.155.155,0,0,1-.156.159l-1.562,2.858h-.312a3.493,3.493,0,1,0,3.124,4.921h27.177a3.259,3.259,0,0,0,3.124,2.064,3.493,3.493,0,0,0,0-6.985h-.312l-1.562-2.858a.155.155,0,0,0-.156-.159V174.207a47.529,47.529,0,0,0,29.676-30.163H543.1a.154.154,0,0,1,.156.159l2.811,1.588v.318a3.437,3.437,0,1,0,6.872,0A3.107,3.107,0,0,0,550.906,142.933ZM502.487,63.558a.635.635,0,0,1,0,1.27c-.156,0-.312,0-.312-.159a.829.829,0,0,1-.312-.635C501.706,63.875,502.019,63.558,502.487,63.558Zm-33.269,1.27c-.156,0-.156.159-.312.159a.635.635,0,1,1,.625-.635C469.687,64.51,469.531,64.669,469.218,64.828ZM421.736,146.9a.635.635,0,0,1,0-1.27h0a.807.807,0,0,1,.625.318c0,.159.156.159.156.317A.718.718,0,0,1,421.736,146.9Zm.625-34.449a.807.807,0,0,1-.625.317h0a.635.635,0,1,1,.625-.635C422.517,112.294,422.517,112.294,422.361,112.453Zm3.592,29.687-2.03,1.111c-.156-.159-.469-.318-.625-.476V115.311a2.16,2.16,0,0,0,.625-.476l2.03,1.111Zm14.682-.317H428.452v-25.4h12.183a47.8,47.8,0,0,0,0,25.4Zm28.271,52.864a.635.635,0,0,1,0-1.27c.156,0,.312,0,.312.159a.829.829,0,0,1,.312.635C469.687,194.369,469.375,194.686,468.906,194.686Zm33.269-1.27c.156,0,.156-.159.312-.159a.635.635,0,1,1-.625.635C501.706,193.734,501.862,193.575,502.175,193.416ZM472.186,65.621h27.177a2.187,2.187,0,0,0,.469.635l-1.093,2.064H473.123l-1.093-2.064C471.874,66.1,472.03,65.939,472.186,65.621Zm25.928,5.4V83.4a45.577,45.577,0,0,0-24.991,0V71.019Zm1.093,121.6H472.03a2.189,2.189,0,0,0-.469-.635l1.093-2.064H498.27l1.093,2.064C499.519,192.146,499.363,192.305,499.207,192.622Zm-26.084-5.4V174.842a45.577,45.577,0,0,0,24.991,0v12.383Zm54.667-45.4c-.156.317-.156.794-.312,1.111a2.98,2.98,0,0,0-.312,1.111,44.7,44.7,0,0,1-26.709,27.147,547548.22,547548.22,0,0,1-2.187.635,41.932,41.932,0,0,1-24.991,0c-.312-.159-.781-.159-1.093-.318a2.86,2.86,0,0,0-1.093-.317,44.7,44.7,0,0,1-26.709-27.147,22677.178,22677.178,0,0,1-.625-2.223,43.964,43.964,0,0,1,0-25.4c.156-.318.156-.794.312-1.111a2.979,2.979,0,0,0,.312-1.111,44.7,44.7,0,0,1,26.709-27.146,40923.648,40923.648,0,0,1,2.187-.635,41.932,41.932,0,0,1,24.991,0c.312.159.781.159,1.093.317a2.86,2.86,0,0,0,1.093.318A44.7,44.7,0,0,1,527.165,114.2a21188.744,21188.744,0,0,0,.625,2.223,43.965,43.965,0,0,1,0,25.4Zm15.151,0H530.758a47.8,47.8,0,0,0,0-25.4h12.183Zm5.154,1.111a2.159,2.159,0,0,0-.625.476L545.44,142.3V116.1l2.031-1.111c.156.159.469.318.625.476ZM549.5,146.9a.677.677,0,0,1-.625-.635c0-.159,0-.317.156-.317a.807.807,0,0,1,.625-.318h0a.677.677,0,0,1,.625.635A.718.718,0,0,1,549.5,146.9Zm0-34.132h0a.808.808,0,0,1-.625-.317c0-.159-.156-.159-.156-.318a.625.625,0,1,1,1.249,0C550.282,112.453,549.969,112.77,549.5,112.77Z" transform="translate(-418.3 -60.7)"/></g><rect class="f" width="9.215" height="215.902" transform="translate(260.839)"/><rect class="f" width="9.215" height="74.613" transform="translate(260.839 272.418)"/><rect class="f" width="9.215" height="217.331" transform="translate(485.911)"/><rect class="f" width="9.215" height="208.917" transform="translate(484.349 441.329)"/><rect class="f" width="9.215" height="89.853" transform="translate(484.349 271.624)"/><rect class="f" width="77.158" height="9.366" transform="translate(260.839 207.964)"/><rect class="f" width="77.158" height="9.366" transform="translate(408.596 207.964)"/><rect class="f" width="232.569" height="9.366" transform="translate(260.839 272.1)"/><rect class="f" width="138.854" height="9.366" transform="translate(775.021 373.383)"/><g transform="translate(777.676 305.438)"><path class="k" d="M621.916,253.519H503.523A5.646,5.646,0,0,1,497.9,247.8V198.115a5.646,5.646,0,0,1,5.623-5.715H621.916a5.646,5.646,0,0,1,5.623,5.715V247.8A5.646,5.646,0,0,1,621.916,253.519Z" transform="translate(-497.9 -192.4)"/><g transform="translate(10.309 7.938)"><path class="c" d="M511.841,197.4h50.918c4.061,0,7.341,1.111,7.341,2.381V232.8c0,1.27-3.28,2.381-7.341,2.381H511.841c-4.061,0-7.341-1.111-7.341-2.381v-33.02C504.656,198.511,507.936,197.4,511.841,197.4Z" transform="translate(-504.5 -197.4)"/></g></g><g transform="translate(499.812 70.327)"><path class="d" d="M326.56,127.645h47.482a6.654,6.654,0,0,0,6.56-6.668V50.968a6.654,6.654,0,0,0-6.56-6.668H326.56A6.654,6.654,0,0,0,320,50.968v70.009A6.654,6.654,0,0,0,326.56,127.645Z" transform="translate(-320 -44.3)"/><g transform="translate(9.371 7.779)"><ellipse class="l" cx="8.122" cy="8.255" rx="8.122" ry="8.255"/><ellipse class="l" cx="8.122" cy="8.255" rx="8.122" ry="8.255" transform="translate(25.615)"/><ellipse class="l" cx="8.122" cy="8.255" rx="8.122" ry="8.255" transform="translate(0 25.718)"/><ellipse class="l" cx="8.122" cy="8.255" rx="8.122" ry="8.255" transform="translate(25.615 25.718)"/><ellipse class="l" cx="8.122" cy="8.255" rx="8.122" ry="8.255" transform="translate(0 51.277)"/><ellipse class="l" cx="8.122" cy="8.255" rx="8.122" ry="8.255" transform="translate(25.615 51.277)"/></g></g><g transform="translate(799.074 326.711)"><g transform="translate(18.743)"><ellipse class="l" cx="2.968" cy="3.016" rx="2.968" ry="3.016"/></g><path class="l" d="M511.6,224.145v1.429a4.507,4.507,0,0,0,4.373,4.445h34.674a4.507,4.507,0,0,0,4.373-4.445v-1.429a4.507,4.507,0,0,0-4.373-4.445H515.973A4.4,4.4,0,0,0,511.6,224.145Z" transform="translate(-511.6 -197.634)"/><g transform="translate(5.31 24.13)"><ellipse class="l" cx="2.968" cy="3.016" rx="2.968" ry="3.016"/></g><g transform="translate(32.175 24.13)"><ellipse class="l" cx="2.968" cy="3.016" rx="2.968" ry="3.016"/></g><path class="l" d="M524.2,213.823a2.253,2.253,0,0,1,2.187-2.223,2.153,2.153,0,0,1,2.187,2.223v15.716a2.253,2.253,0,0,1-2.187,2.223,2.153,2.153,0,0,1-2.187-2.223Z" transform="translate(-504.52 -202.392)"/></g><g transform="translate(847.65 7.461)"><path class="c" d="M542.7,130.749V10.415A5.646,5.646,0,0,1,548.323,4.7h48.888a5.646,5.646,0,0,1,5.623,5.715V130.749a5.646,5.646,0,0,1-5.623,5.715H548.323A5.549,5.549,0,0,1,542.7,130.749Z" transform="translate(-542.7 -4.7)"/></g><g transform="translate(499.812 7.461)"><path class="m" d="M328.434,4.7H503.993c4.53,0,8.434,2.54,8.434,5.715V60.1c0,3.175-3.749,5.715-8.434,5.715H328.434c-4.53,0-8.434-2.54-8.434-5.715V10.415C320,7.24,323.749,4.7,328.434,4.7Z" transform="translate(-320 -4.7)"/></g><g transform="translate(500.281 154.941)"><path class="c" d="M380.277,100.775V123c0,1.746-1.718,3.175-3.749,3.175h-52.48c-2.03,0-3.749-1.429-3.749-3.175V100.775c0-1.746,1.718-3.175,3.749-3.175h52.48C378.559,97.6,380.277,99.029,380.277,100.775Z" transform="translate(-320.3 -97.6)"/></g><g transform="translate(507.309 441.012)"><path class="f" d="M415.86,325.584c0,26.194,20.93,47.467,46.7,47.467s46.7-21.273,46.7-47.467-20.93-47.467-46.7-47.467S415.86,299.39,415.86,325.584ZM329.954,277.8a5.243,5.243,0,0,0-5.154,5.239v177.8a3.563,3.563,0,0,0,1.874,3.016,3.142,3.142,0,0,0,2.968,1.905H504.576a5.243,5.243,0,0,0,5.154-5.239v-7.461a5.6,5.6,0,0,0-1.249-3.493,6.177,6.177,0,0,0,1.249-3.81v-5.715a4.453,4.453,0,0,0-.469-2.064v-40.8a5.58,5.58,0,0,0-5.467-5.556H456a5.04,5.04,0,0,0-3.9,1.746,5.04,5.04,0,0,0-3.9-1.746H400.4a5.04,5.04,0,0,0-3.9,1.746l-.156-.159a5.2,5.2,0,0,0,1.718-3.969V340.666a5.2,5.2,0,0,0-1.718-3.969,5.2,5.2,0,0,0,1.718-3.969V284.15a5.58,5.58,0,0,0-5.467-5.556H352.446a4.745,4.745,0,0,0-2.03-.476h-5.623a6.288,6.288,0,0,0-3.749,1.27,5.4,5.4,0,0,0-3.436-1.27h-7.653Z" transform="translate(-324.8 -277.8)"/><path class="j" d="M442.488,395.73V433.2a6.179,6.179,0,0,1,2.343-.476h47.795a6.181,6.181,0,0,1,2.343.476V395.73a2.422,2.422,0,0,0-2.343-2.381H444.831A2.422,2.422,0,0,0,442.488,395.73Zm-97.62,48.737a9.43,9.43,0,0,1-.312,2.064H383.6a8.163,8.163,0,0,1-.312-2.064v-5.715a4.454,4.454,0,0,1,.469-2.064v-40.8a2.422,2.422,0,0,0-2.343-2.381H344.556a6.461,6.461,0,0,1,.469,2.381v48.578Zm42.015-48.737V433.2a6.179,6.179,0,0,1,2.343-.476h47.794a6.181,6.181,0,0,1,2.343.476V395.73a2.422,2.422,0,0,0-2.343-2.381H389.227A2.32,2.32,0,0,0,386.884,395.73Zm-5.623-59.056H344.4a6.46,6.46,0,0,1,.469,2.381v48.578a6.462,6.462,0,0,1-.469,2.381h36.861a2.422,2.422,0,0,0,2.343-2.381V339.056A2.32,2.32,0,0,0,381.261,336.674Zm-36.393-54.293v48.578a6.462,6.462,0,0,1-.469,2.381h36.861a2.422,2.422,0,0,0,2.343-2.381V282.381A2.422,2.422,0,0,0,381.261,280H344.4A6.46,6.46,0,0,1,344.869,282.381Zm63.1,41.91c0,24.448,19.524,44.292,43.577,44.292s43.577-19.844,43.577-44.292S475.6,280,451.547,280,407.97,300,407.97,324.292Z" transform="translate(-313.787 -276.507)"/><path class="h" d="M452.565,438.634v5.715a2.085,2.085,0,0,0,2.03,2.064H502.39a2.085,2.085,0,0,0,2.03-2.064v-5.715a2.085,2.085,0,0,0-2.03-2.064H454.6A2.085,2.085,0,0,0,452.565,438.634Zm-122.454,21.59h173.06a1.355,1.355,0,0,0,1.25-1.27v-7.461a1.355,1.355,0,0,0-1.25-1.27H342.451a5.985,5.985,0,0,0-4.217,1.746Zm66.694-21.59v5.715a2.085,2.085,0,0,0,2.03,2.064H446.63a2.085,2.085,0,0,0,2.03-2.064v-5.715a2.085,2.085,0,0,0-2.03-2.064H398.836A2.085,2.085,0,0,0,396.805,438.634ZM327.3,281.629v175.9l8.122-8.255a6.186,6.186,0,0,0,1.718-4.286V281.629a1.355,1.355,0,0,0-1.25-1.27H328.55A1.242,1.242,0,0,0,327.3,281.629Zm13.745.635v48.578a2.085,2.085,0,0,0,2.03,2.064H348.7a2.085,2.085,0,0,0,2.031-2.064V282.264A2.085,2.085,0,0,0,348.7,280.2h-5.623A2.337,2.337,0,0,0,341.045,282.264Zm0,113.349V444.19a2.085,2.085,0,0,0,2.03,2.064H348.7a2.085,2.085,0,0,0,2.031-2.064V395.612a2.085,2.085,0,0,0-2.031-2.064h-5.623A2.2,2.2,0,0,0,341.045,395.612Zm0-56.674v48.578a2.085,2.085,0,0,0,2.03,2.064H348.7a2.085,2.085,0,0,0,2.031-2.064V338.938a2.085,2.085,0,0,0-2.031-2.064h-5.623A2.2,2.2,0,0,0,341.045,338.938Z" transform="translate(-323.395 -276.39)"/><path class="f" d="M415.86,325.584c0,26.194,20.93,47.467,46.7,47.467s46.7-21.273,46.7-47.467-20.93-47.467-46.7-47.467S415.86,299.39,415.86,325.584Zm90.279,0c0,24.448-19.524,44.292-43.577,44.292s-43.577-19.844-43.577-44.292,19.524-44.292,43.577-44.292S506.138,301.3,506.138,325.584ZM329.954,277.8a5.243,5.243,0,0,0-5.154,5.239v177.8a3.563,3.563,0,0,0,1.874,3.016,3.142,3.142,0,0,0,2.968,1.905H504.576a5.243,5.243,0,0,0,5.154-5.239v-7.461a5.6,5.6,0,0,0-1.249-3.493,6.177,6.177,0,0,0,1.249-3.81v-5.715a4.453,4.453,0,0,0-.469-2.064v-40.8a5.58,5.58,0,0,0-5.467-5.556H456a5.04,5.04,0,0,0-3.9,1.746,5.04,5.04,0,0,0-3.9-1.746H400.4a5.04,5.04,0,0,0-3.9,1.746l-.156-.159a5.2,5.2,0,0,0,1.718-3.969V340.666a5.2,5.2,0,0,0-1.718-3.969,5.2,5.2,0,0,0,1.718-3.969V284.15a5.58,5.58,0,0,0-5.467-5.556H352.446a4.745,4.745,0,0,0-2.03-.476h-5.623a6.288,6.288,0,0,0-3.749,1.27,5.4,5.4,0,0,0-3.436-1.27h-7.653ZM504.576,451.792a1.355,1.355,0,0,1,1.249,1.27v7.461a1.355,1.355,0,0,1-1.249,1.27H331.516l8.122-8.255a5.985,5.985,0,0,1,4.217-1.746H504.576ZM503.8,437.98a2.085,2.085,0,0,1,2.03,2.064v5.715a2.085,2.085,0,0,1-2.03,2.064H456a2.085,2.085,0,0,1-2.03-2.064v-5.715A2.085,2.085,0,0,1,456,437.98Zm-55.76,0a2.085,2.085,0,0,1,2.031,2.064v5.715a2.085,2.085,0,0,1-2.031,2.064H400.24a2.085,2.085,0,0,1-2.03-2.064v-5.715a2.085,2.085,0,0,1,2.03-2.064Zm55.76-43.339a2.422,2.422,0,0,1,2.343,2.381v37.465a6.179,6.179,0,0,0-2.343-.476H456a6.181,6.181,0,0,0-2.343.476V397.022A2.422,2.422,0,0,1,456,394.641Zm-55.76,0a2.422,2.422,0,0,1,2.343,2.381v37.465a6.179,6.179,0,0,0-2.343-.476H400.24a6.18,6.18,0,0,0-2.343.476V397.022a2.422,2.422,0,0,1,2.343-2.381Zm-55.76,0a2.422,2.422,0,0,1,2.343,2.381v40.8a4.954,4.954,0,0,0-.469,2.064V445.6a9.427,9.427,0,0,0,.312,2.064H355.414a8.167,8.167,0,0,0,.312-2.064V397.022a6.462,6.462,0,0,0-.469-2.381ZM350.1,447.664H344.48a2.085,2.085,0,0,1-2.031-2.064V397.022a2.085,2.085,0,0,1,2.031-2.064H350.1a2.085,2.085,0,0,1,2.03,2.064V445.6A2.079,2.079,0,0,1,350.1,447.664Zm42.172-109.7a2.422,2.422,0,0,1,2.343,2.381v48.578a2.422,2.422,0,0,1-2.343,2.381H355.414a6.46,6.46,0,0,0,.469-2.381V340.348a6.462,6.462,0,0,0-.469-2.381ZM350.1,390.99H344.48a2.085,2.085,0,0,1-2.031-2.064V340.348a2.085,2.085,0,0,1,2.031-2.064H350.1a2.085,2.085,0,0,1,2.03,2.064v48.578A2.079,2.079,0,0,1,350.1,390.99Zm-11.558,55.4a6.187,6.187,0,0,1-1.718,4.286l-8.122,8.255v-175.9a1.355,1.355,0,0,1,1.25-1.27H337.3a1.355,1.355,0,0,1,1.25,1.27V446.394Zm5.935-164.625H350.1a2.085,2.085,0,0,1,2.03,2.064v48.578a2.085,2.085,0,0,1-2.03,2.064H344.48a2.085,2.085,0,0,1-2.031-2.064V283.833A2.085,2.085,0,0,1,344.48,281.769Zm47.794-.476a2.422,2.422,0,0,1,2.343,2.381v48.578a2.422,2.422,0,0,1-2.343,2.381H355.414a6.461,6.461,0,0,0,.469-2.381V283.674a6.462,6.462,0,0,0-.469-2.381Z" transform="translate(-324.8 -277.8)"/></g><g transform="translate(582.454 340.99)"><path class="f" d="M425.374,256.237a5.535,5.535,0,0,0,1.718-.318h.156a5.075,5.075,0,0,0,2.811-6.509l-9.84-26.194a3.466,3.466,0,0,0-.781-1.27,4.764,4.764,0,0,0-.312-1.588,8.652,8.652,0,0,0-8.434-5.556A60.4,60.4,0,0,0,376.174,228.3a8.524,8.524,0,0,0-2.655,9.843,6.461,6.461,0,0,0,.781,1.429,7.087,7.087,0,0,0,.312,1.588l9.84,26.194a4.943,4.943,0,0,0,6.4,2.858h.156a3.231,3.231,0,0,0,1.562-.953,4.732,4.732,0,0,0,5.935,2.7l24.366-9.525A5.209,5.209,0,0,0,425.374,256.237Z" transform="translate(-372.911 -214.795)"/><path class="h" d="M382.285,234.988h0a5.6,5.6,0,0,0-1.406.794c-.156,0-.156.159-.312.159a3.9,3.9,0,0,0-1.093.635c-.156.159-.312.159-.625.318h0a3,3,0,0,1-2.031.159h0a1.8,1.8,0,0,1-1.249-1.111c0-.159-.156-.159-.156-.317a5.723,5.723,0,0,1-.312-1.588,5.154,5.154,0,0,1,1.874-4.128,57.21,57.21,0,0,1,32.644-12.7,5.387,5.387,0,0,1,4.217,1.746,6.468,6.468,0,0,1,.781,1.429c0,.159,0,.159.156.318a3.2,3.2,0,0,1-.156,1.746h0a2.49,2.49,0,0,1-1.562,1.27h0c-.156,0-.469.159-.625.159-.312.159-.781.159-1.093.317h-.312l-1.406.476h-.156A143.7,143.7,0,0,0,382.285,234.988Z" transform="translate(-371.681 -213.389)"/><path class="h" d="M411.614,246.271a1.544,1.544,0,0,1-.781,1.905h-.156a1.5,1.5,0,0,1-1.874-.794l-8.9-23.5a6.612,6.612,0,0,0,2.655-1.587Z" transform="translate(-357.745 -210.386)"/><path class="h" d="M387.433,257a1.5,1.5,0,0,1-1.874-.794L376.5,232.235a6.252,6.252,0,0,0,2.968-.635l8.9,23.5A1.544,1.544,0,0,1,387.59,257Z" transform="translate(-370.894 -204.922)"/><path class="j" d="M393.152,263.688a1.994,1.994,0,0,1-2.343-.953l-.937-2.54a8.087,8.087,0,0,0-.312-1.905L380.5,234.478A162.78,162.78,0,0,1,407.365,224l9.059,23.813a5.3,5.3,0,0,0,.937,1.587l.937,2.54a2.055,2.055,0,0,1-.937,2.381Z" transform="translate(-368.646 -209.387)"/></g><path class="n" d="M546.7,453.031H613.39V261.1H546.7c-6.872,0-12.5,6.826-12.5,15.24V437.632C534.045,446.2,539.668,453.031,546.7,453.031Z" transform="translate(300.173 153.4)"/><g transform="translate(850.774 422.596)"><path class="f" d="M544.7,302.069V356.2a3.9,3.9,0,0,0,3.9,3.969h5.623a3.9,3.9,0,0,0,3.9-3.969V302.069a3.9,3.9,0,0,0-3.9-3.969H548.6A4,4,0,0,0,544.7,302.069Z" transform="translate(-544.7 -247.458)"/><path class="o" d="M594.653,266.2,551.7,279.694v145.1l42.953,13.494Z" transform="translate(-540.767 -266.2)"/></g><rect class="f" width="269.898" height="9.366" transform="translate(0 408.626)"/><g transform="translate(276.146 20.955)"><path class="l" d="M211.076,56.058a20.482,20.482,0,0,0,0-40.958H181.4V56.058Z" transform="translate(-174.215 -12.084)"/><ellipse class="c" cx="12.964" cy="13.176" rx="12.964" ry="13.176" transform="translate(23.897 10.319)"/><path class="l" d="M176.8,20.661a7.342,7.342,0,1,1,14.682,0V52.888a7.342,7.342,0,1,1-14.682,0Z" transform="translate(-176.8 -13.2)"/></g><g transform="translate(275.99 96.521)"><path class="l" d="M215.123,60.8H183.26a6.654,6.654,0,0,0-6.56,6.668v61.913a6.654,6.654,0,0,0,6.56,6.668h31.863a6.654,6.654,0,0,0,6.56-6.668V67.309A6.729,6.729,0,0,0,215.123,60.8Z" transform="translate(-176.7 -60.8)"/><path class="c" d="M187.9,70.3a22.546,22.546,0,0,1,0,45.085Z" transform="translate(-170.407 -55.219)"/><g transform="translate(5.623 20.479)"><ellipse class="l" cx="4.53" cy="4.604" rx="4.53" ry="4.604"/></g><g transform="translate(5.623 45.403)"><ellipse class="l" cx="4.53" cy="4.604" rx="4.53" ry="4.604"/></g><path class="l" d="M196.607,82.5a3.175,3.175,0,0,1,0,6.35H184.424a3.175,3.175,0,0,1,0-6.35Z" transform="translate(-174.115 -48.051)"/></g><g transform="translate(403.754 33.973)"><path class="l" d="M320.586,122.284V55.926c0-3.81-2.811-6.826-6.091-6.826h-8.9c-3.28,0-6.091,3.016-6.091,6.826v66.358c0,3.81,2.811,6.826,6.091,6.826h8.9C317.774,129.111,320.586,125.936,320.586,122.284Z" transform="translate(-235.462 -5.126)"/><path class="l" d="M327.849,150.624c0,21.59-15.463,39.053-34.674,39.053S258.5,172.214,258.5,150.624V60.453c0-21.59,15.463-39.053,34.674-39.053s34.674,17.463,34.674,39.053Z" transform="translate(-258.5 -21.4)"/><path class="c" d="M316.805,147.216c0,16.51-11.871,29.845-26.553,29.845S263.7,163.726,263.7,147.216V57.045c0-16.51,11.871-29.845,26.552-29.845s26.553,13.335,26.553,29.845Z" transform="translate(-255.578 -17.992)"/><ellipse class="l" cx="4.53" cy="5.239" rx="4.53" ry="5.239" transform="translate(30.145 78.899)"/><g transform="translate(59.197 56.992)"><path class="l" d="M307.942,111.276H309.5a5.133,5.133,0,0,0,4.842-5.4V62.7a5.133,5.133,0,0,0-4.842-5.4h-1.562a5.133,5.133,0,0,0-4.842,5.4v43.18A5.133,5.133,0,0,0,307.942,111.276Z" transform="translate(-292.635 -57.3)"/><g transform="translate(12.808 39.847)"><ellipse class="l" cx="3.28" cy="3.81" rx="3.28" ry="3.81"/></g><g transform="translate(12.808 6.35)"><ellipse class="l" cx="3.28" cy="3.81" rx="3.28" ry="3.81"/></g><path class="l" d="M298.743,77.9a2.508,2.508,0,0,1-2.343-2.7,2.612,2.612,0,0,1,2.343-2.7h13.589a2.508,2.508,0,0,1,2.343,2.7,2.612,2.612,0,0,1-2.343,2.7Z" transform="translate(-296.4 -48.37)"/></g></g><g transform="translate(14.838 314.487)"><path class="n" d="M119.047,267.932H84.06a6.654,6.654,0,0,1-6.56-6.668v-33.5a6.654,6.654,0,0,1,6.56-6.668h34.987a6.654,6.654,0,0,1,6.56,6.668v33.5A6.553,6.553,0,0,1,119.047,267.932Z" transform="translate(28.71 -184.587)"/><path class="n" d="M88.347,267.932H53.36a6.654,6.654,0,0,1-6.56-6.668v-33.5a6.654,6.654,0,0,1,6.56-6.668H88.347a6.654,6.654,0,0,1,6.56,6.668v33.5A6.553,6.553,0,0,1,88.347,267.932Z" transform="translate(11.459 -184.587)"/><path class="n" d="M57.647,281.445H22.66a6.654,6.654,0,0,1-6.56-6.668V204.768a6.654,6.654,0,0,1,6.56-6.668H57.647a6.654,6.654,0,0,1,6.56,6.668v70.009A6.553,6.553,0,0,1,57.647,281.445Z" transform="translate(-5.791 -198.1)"/><path class="l" d="M14.654,198.4a5.143,5.143,0,0,1,5.154,5.239v72.549H161.474a5.243,5.243,0,0,1,5.154,5.239,5.142,5.142,0,0,1-5.154,5.239H14.654c-2.03,0-5.154-.794-5.154-5.239V203.48A5.211,5.211,0,0,1,14.654,198.4Z" transform="translate(-9.5 -197.924)"/></g></g></svg>