<?xml version="1.0" encoding="utf-8"?>
<!-- Generator: Adobe Illustrator 21.1.0, SVG Export Plug-In . SVG Version: 6.00 Build 0)  -->
<svg version="1.1" id="Layer_1" xmlns="http://www.w3.org/2000/svg" xmlns:xlink="http://www.w3.org/1999/xlink" x="0px" y="0px"
	 viewBox="0 0 665.8 475" style="enable-background:new 0 0 665.8 475;" xml:space="preserve">
<style type="text/css">
	.st0{fill:#FFFFFF;stroke:#231F20;stroke-width:5;}
	.st1{fill:#00833D;}
</style>
<g id="bedroom">
	<rect x="2.5" y="2.5" class="st0" width="195" height="299"/>
	<path class="pin" d="M101,220.3c-6.8-12.1-13.4-23.4-19.5-35c-4.5-8.5-1.8-19.5,5.7-25.7c7.6-6.4,18.7-6.7,26.6-0.8
		c8.1,6,11.4,16.5,7.1,25.6c-4.2,8.9-9.4,17.3-14.1,25.9C105,213.4,103.1,216.5,101,220.3z M89.1,176.2c0,6.5,5.3,11.9,11.6,11.9
		c6.6,0.1,12.1-5.2,12.2-11.8c0.1-6.6-5.4-12.3-11.9-12.2C94.4,164.2,89.1,169.6,89.1,176.2C89.1,176.2,89.1,176.2,89.1,176.2z"/>
</g>
<g id="bathroom">
	<rect x="197.5" y="2.5" class="st0" width="159" height="197"/>
	<path class="pin" d="M264.9,97.8c-6.8-12.1-13.4-23.4-19.5-35c-4.5-8.5-1.8-19.5,5.7-25.7c7.6-6.4,18.7-6.7,26.6-0.8
		c8.1,6,11.4,16.5,7.1,25.6c-4.2,8.9-9.4,17.3-14.1,25.9C268.9,90.9,267.1,94,264.9,97.8z M253,53.7c0,6.5,5.3,11.9,11.6,11.9
		c6.6,0.1,12.1-5.2,12.2-11.8c0.1-6.6-5.4-12.3-11.9-12.2C258.4,41.7,253,47.1,253,53.7C253,53.7,253,53.7,253,53.7z"/>
</g>
<g id="kitchen">
	<polygon class="st0" points="663.2,2.5 663.2,272.5 507.5,272.5 507.5,199.5 356.5,199.5 356.5,156.5 356.5,2.5 	"/>
	<path class="pin" d="M569.2,80.7c-6.8-12.1-13.4-23.4-19.5-35c-4.5-8.5-1.8-19.5,5.7-25.7c7.6-6.4,18.7-6.7,26.6-0.8
		c8.1,6,11.4,16.5,7.1,25.6c-4.2,8.9-9.4,17.3-14.1,25.9C573.2,73.8,571.4,77,569.2,80.7z M557.4,36.7c0,6.5,5.3,11.9,11.6,11.9
		c6.6,0.1,12.1-5.2,12.2-11.8c0.1-6.6-5.4-12.3-11.9-12.2C562.7,24.6,557.3,30,557.4,36.7C557.4,36.7,557.4,36.7,557.4,36.7z"/>
</g>
<g id="living">
	<polygon class="st0" points="663.2,472.5 663.2,272.5 507.5,272.5 507.5,199.5 356.5,199.5 356.5,472.5 	"/>
	<path class="pin" d="M553.8,394.8c-6.8-12.1-13.4-23.4-19.5-35c-4.5-8.5-1.8-19.5,5.7-25.7c7.6-6.4,18.7-6.7,26.6-0.8
		c8.1,6,11.4,16.5,7.1,25.6c-4.2,8.9-9.4,17.3-14.1,25.9C557.8,387.9,556,391,553.8,394.8z M542,350.7c0,6.5,5.3,11.9,11.6,11.9
		c6.6,0.1,12.1-5.2,12.2-11.8c0.1-6.6-5.4-12.3-11.9-12.2C547.3,338.7,541.9,344.1,542,350.7C542,350.7,542,350.7,542,350.7z"/>
</g>
<g id="outside">
	<polygon class="st0" points="2.5,472.5 2.5,301.5 197.5,301.5 197.5,199.5 356.5,199.5 356.5,472.5 	"/>
	<path class="pin" d="M94.5,400.1c-6.8-12.1-13.4-23.4-19.5-35c-4.5-8.5-1.8-19.5,5.7-25.7c7.6-6.4,18.7-6.7,26.6-0.8
		c8.1,6,11.4,16.5,7.1,25.6c-4.2,8.9-9.4,17.3-14.1,25.9C98.5,393.2,96.6,396.3,94.5,400.1z M82.6,356.1c0,6.5,5.3,11.9,11.6,11.9
		c6.6,0.1,12.1-5.2,12.2-11.8c0.1-6.6-5.4-12.3-11.9-12.2C88,344,82.6,349.4,82.6,356.1C82.6,356.1,82.6,356.1,82.6,356.1z"/>
</g>
</svg>
