<svg xmlns="http://www.w3.org/2000/svg" viewBox="-5808.521 1820.721 74.156 112.01"><defs><style>.a{fill:#00833D;}</style></defs><path class="a" d="M39.023,114.057C27.472,93.423,16.217,74.171,5.752,54.425c-7.7-14.513-3.061-33.271,9.675-43.835A36.651,36.651,0,0,1,60.842,9.306C74.664,19.475,80.292,37.345,72.887,52.944,65.68,68.05,56.893,82.365,48.8,97.076,45.835,102.308,42.676,107.64,39.023,114.057ZM18.784,39.024c0,11.156,8.984,20.338,19.844,20.338A20.569,20.569,0,0,0,59.46,39.221c.1-11.255-9.28-20.93-20.239-20.832A20.52,20.52,0,0,0,18.784,39.024Z" transform="translate(-5810.529 1818.675)"/></svg>